PathFileType	4	(X/Y/Z)	C:/Users/beibeiliu/ov580/test_trc/User2\sequence.22_training_dense_left.trc
DataRate	CameraRate	NumFrames	NumMarkers	Units	OrigDataRate	OrigDataStartFrame	OrigNumFrames
120	120	24	19	mm	120	46	364
Frame#	Time	ThumbCMC			ThumbMCP			ThumbIP			ThumbTip			IndexMCP			IndexPIP			IndexTip			MiddleMCP			MiddlePIP			MiddleTip			RingMCP			RingPIP			RingTip			PinkyMCP			PinkyPIP			PinkyTip			BackHand1			BackHand2			BackHand3	
		X0	Y0	Z0	X1	Y1	Z1	X2	Y2	Z2	X3	Y3	Z3	X4	Y4	Z4	X5	Y5	Z5	X6	Y6	Z6	X7	Y7	Z7	X8	Y8	Z8	X9	Y9	Z9	X10	Y10	Z10	X11	Y11	Z11	X12	Y12	Z12	X13	Y13	Z13	X14	Y14	Z14	X15	Y15	Z15	X16	Y16	Z16	X17	Y17	Z17	X18	Y18	Z18	
45	0.375	-238.477	2.08827	61.9504	-226.996	9.21131	30.7747	-215.018	9.32949	1.89457	-207.148	14.5742	-18.3768	-207.809	-26.699	-8.00803	-179.319	-9.53752	-7.80164	-182.791	3.24375	25.2435	-189.865	-41.6394	-0.339028	-162.473	-20.3555	12.2815	-179.666	-6.85863	43.3116	-179.839	-54.787	9.03918	-156.513	-35.3204	13.7639	-174.003	-20.9135	47.3073	-185.324	-78.493	26.4329	-172.143	-83.5523	6.89618	-167.532	-87.7126	-14.5084	-222.626	-67.4156	61.3524	-239.934	-58.4066	89.8316	-249.966	-35.2507	60.7455	
46	0.383333	-242.687	-1.73293	57.9412	-231.921	8.95792	30.2091	-219.762	8.26046	-0.165068	-208.757	9.80591	-23.3052	-207.632	-28.3487	-7.97835	-179.718	-10.8016	-9.94168	-183.187	2.55498	25.5928	-188.723	-40.5834	-1.8582	-163.402	-13.5588	8.92486	-180.256	-4.31175	41.6918	-172.533	-56.1599	13.1487	-154.783	-28.4013	14.2287	-169.835	-16.7106	46.4407	-177.989	-76.13	27.6648	-167.95	-77.0675	10.823	-157.913	-82.7899	-11.064	-219.376	-66.2767	58.593	-233.539	-60.9772	90.9974	-248.251	-38.9587	59.3786	
47	0.391667	-243.804	-2.72886	58.4354	-230.606	3.16743	31.3018	-222.636	7.62648	-4.98313	-214.355	13.9895	-23.8543	-203.587	-28.5395	-9.8008	-181.958	-8.06479	-11.0037	-186.525	8.34532	23.0128	-187.352	-42.4232	0.685163	-161.476	-14.5685	7.38463	-181.608	-1.06669	40.2018	-167.407	-50.8652	11.1446	-153.827	-25.0878	13.9863	-170.645	-12.629	46.0601	-174.311	-71.1927	31.4693	-159.348	-74.986	9.93469	-150.786	-80.6798	-12.8798	-213.443	-65.5776	63.065	-230.617	-62.6283	87.5504	-246.69	-43.3567	59.3015	
48	0.4	-243.612	-5.5418	61.4502	-231.072	2.15247	32.1685	-223.904	6.76869	-4.51384	-212.773	9.08813	-24.5637	-202.499	-30.2027	-8.61015	-178.334	-7.70071	-9.13132	-185.536	8.31509	23.1627	-182.414	-42.0804	1.93736	-163.286	-9.16191	5.80646	-184.354	0.943752	38.8982	-169.023	-49.1462	12.7375	-148.869	-22.4446	16.4375	-173.827	-10.2166	43.0416	-166.01	-70.9859	30.669	-154.126	-72.5366	8.00242	-146.823	-77.4221	-9.26615	-208	-67.6827	64.3592	-222.957	-63.7381	88.5853	-240.368	-48.1527	62.7721	
49	0.408333	-242.711	-6.82964	56.3088	-230.756	-0.0803962	31.7915	-222.098	3.74999	-2.2892	-215.536	10.0145	-25.4909	-197.726	-29.8629	-9.31998	-178.146	-4.1662	-8.54537	-186.866	10.0695	20.8881	-178.834	-39.8892	0.0331572	-160.395	-9.41393	6.58709	-181.719	-1.51262	42.725	-162.213	-49.28	11.9812	-148.863	-19.2535	13.7465	-166.815	-8.03519	43.0616	-166.59	-65.5103	35.8067	-152.605	-68.2113	11.1651	-140.506	-78.5925	-9.34684	-203.664	-67.8956	61.4713	-220.595	-61.3604	89.7186	-237.426	-48.3476	60.7117	
50	0.416667	-240.892	-6.81517	61.5313	-229.769	-0.642366	30.2561	-220.498	3.26588	-1.13044	-216.87	11.2006	-24.6915	-199.386	-29.6224	-6.63959	-173.565	-5.26939	-7.98754	-184.452	11.6889	19.763	-175.042	-38.446	1.92706	-157.547	-6.74509	6.90614	-176.588	0.923583	40.6309	-160.5	-47.9542	13.2396	-143.928	-17.3936	14.9287	-166.281	-6.55686	43.3245	-157.925	-64.5316	33.3424	-144.541	-67.8546	14.887	-138.28	-72.8863	-6.6005	-199.142	-65.8497	64.6709	-213.791	-64.4929	91.3399	-232.831	-49.9765	61.3927	
51	0.425	-237.873	-6.9628	62.8355	-229.989	1.95148	31.5204	-217.895	2.80626	0.229704	-213.027	8.33113	-26.6019	-192.256	-29.589	-5.93334	-172.572	-3.48921	-7.83193	-183.221	11.0181	24.8151	-171.955	-36.7735	2.88383	-156.349	-5.30607	3.77079	-177.454	1.00041	43.9775	-157.145	-44.6294	12.6249	-143.48	-14.8891	12.6934	-159.291	-4.78966	42.2591	-152.05	-63.0922	38.3827	-139.393	-64.5389	12.2184	-132.26	-67.2406	-8.73618	-193.853	-63.6171	64.0175	-206.882	-62.9176	94.6562	-229.853	-49.5668	61.2724	
52	0.433333	-231.352	-11.9782	63.4396	-225.886	-1.65869	35.7622	-216.423	-0.849048	-4.67109	-209.749	5.91934	-24.7176	-186.517	-31.0121	-2.50636	-167.813	-4.26636	-6.06873	-180.273	9.88685	26.3126	-163.37	-35.0193	2.27373	-152.49	-3.18948	5.27125	-174.99	4.67028	39.8028	-149.177	-44.9433	17.9578	-139.353	-13.9641	13.5329	-157.863	-3.68958	44.0704	-146.047	-60.2475	38.3817	-133.477	-61.4286	12.9262	-123.147	-69.0151	-8.4561	-186.887	-61.9541	64.7035	-202.182	-63.8627	98.4618	-223.472	-50.5118	61.11	
53	0.441667	-229.85	-8.92412	65.2333	-221.934	-2.78974	31.5985	-213.77	0.924306	-2.90358	-206.076	6.54194	-21.7231	-183.532	-30.2852	-1.78098	-164.922	-1.93541	-5.49697	-176.398	12.8442	22.7665	-163.05	-32.3233	1.52163	-148.635	0.144223	8.87364	-169.894	4.73132	42.2841	-148.165	-41.132	14.1923	-134.187	-14.1291	14.628	-154.1	-0.470789	40.7691	-145.344	-58.3409	38.3299	-132.016	-59.3435	13.8663	-122.101	-65.5739	-5.84432	-182.865	-64.0502	70.3198	-198.638	-62.4467	96.4933	-220.223	-49.1778	61.4413	
54	0.45	-224.359	-9.19276	62.2081	-216.89	-0.613108	35.6829	-209.819	2.97519	-0.259753	-202.239	8.51133	-20.4446	-179.731	-29.3558	-2.02701	-160.156	0.0976231	-4.31608	-171.666	13.1011	23.6581	-157.049	-35.4308	5.18601	-145.192	-0.288209	9.52009	-166.688	6.53811	42.0854	-141.915	-42.9914	18.0563	-128.908	-12.5033	17.9708	-150.626	-1.82115	42.2983	-140.407	-59.2069	36.2905	-128.066	-60.3431	14.7809	-118.457	-63.9101	-7.0821	-179.393	-63.4952	68.1246	-193.595	-60.0855	98.8859	-216.208	-45.8923	63.8894	
55	0.458333	-218.066	-5.66443	65.6475	-212.124	2.97412	33.8576	-203.133	5.54584	2.93544	-201.075	14.209	-22.3959	-179.043	-29.0634	-0.550784	-157.282	-2.87718	-4.93812	-166.358	12.7026	25.4784	-158.566	-34.688	3.25463	-141.289	-1.16062	6.79621	-155.892	6.42171	41.6131	-145.102	-43.8566	16.1797	-127.285	-12.4114	17.638	-146.749	-3.19362	43.783	-140.006	-62.1879	37.1123	-130.255	-62.0701	15.1995	-115.9	-69.1754	-9.64256	-181.111	-60.1674	66.8622	-195.354	-58.6605	94.5566	-215.972	-44.995	67.0915	
56	0.466667	-214.654	-1.14455	64.7247	-208.478	8.61357	35.4201	-201.751	12.3964	1.88479	-197.032	20.6568	-18.2701	-178.923	-24.411	-4.03422	-156.242	-1.0721	-6.92509	-160.62	14.7914	22.9174	-158.189	-34.3109	0.409419	-136.709	-4.95558	7.82464	-152.371	3.50336	43.7355	-145.676	-45.1831	14.8567	-125.783	-16.5911	17.0008	-146.259	-6.00702	44.4336	-145.395	-62.7047	36.4713	-133.865	-65.3035	13.2454	-122.081	-73.2208	-11.172	-179.422	-63.6535	62.8993	-195.381	-60.1106	97.1573	-214.216	-38.526	63.0548	
57	0.475	-207.937	4.03784	71.0595	-200.664	12.154	41.2898	-192.075	13.6064	5.3702	-187.958	22.1915	-15.58	-176.99	-19.3869	-4.7026	-151.33	-2.47177	-4.40316	-155.595	12.8703	27.1113	-158.902	-35.5037	0.262157	-134.275	-11.3077	3.95545	-148.303	2.0013	43.5581	-145.12	-45.034	9.47949	-125.689	-20.5391	12.5991	-138.904	-8.40431	41.5568	-148.301	-67.0942	32.4822	-136.696	-72.1992	6.94488	-131.443	-78.2301	-13.4807	-182.083	-60.7763	64.4066	-198.904	-55.6885	93.1131	-213.87	-35.221	66.6782	
58	0.483333	-202.002	12.0332	72.8189	-191.274	17.2961	43.3798	-185.64	22.7215	11.0239	-179.948	29.3456	-13.6705	-178.43	-16.356	-2.24115	-148.988	-2.94365	-5.53818	-148.798	10.87	31.2536	-162.234	-34.5336	1.63749	-131.72	-11.0781	7.80768	-143.039	0.582513	44.087	-150.436	-48.5287	9.94086	-124.467	-26.9064	12.5009	-134.295	-12.7198	41.0775	-154.892	-69.6038	28.1102	-147.297	-70.9111	3.92327	-141.999	-77.3262	-21.4894	-188.678	-56.2584	58.8658	-198.82	-54.0446	94.1511	-212.492	-29.627	66.1991	
59	0.491667	-191.867	17.2867	76.8533	-180.847	22.2504	46.2114	-174.484	26.9904	13.4909	-167.506	32.5678	-10.4949	-175.063	-8.19931	-4.67531	-144.607	3.12789	-3.99658	-140.23	8.10804	27.6139	-161.77	-30.9404	-1.26226	-131.439	-14.6511	3.60596	-136.594	-6.76957	43.8341	-152.351	-46.7482	5.79601	-126.453	-28.4886	10.7979	-133.84	-18.0211	45.7071	-162.362	-67.4238	26.5353	-155.169	-71.3869	-4.26472	-152.021	-72.2838	-24.3633	-191.398	-56.1454	63.0913	-201.03	-52.4169	92.9449	-212.24	-18.4704	67.451	
60	0.5	-181.538	19.9278	80.6352	-170.2	24.1476	51.0359	-163.74	31.3851	13.7138	-156.765	37.0326	-4.87996	-176.131	-4.09173	1.65227	-142.718	-2.04486	-5.35233	-133.841	4.16463	32.5322	-165.847	-23.1238	-1.63053	-131.52	-18.7963	2.85139	-133.982	-6.05876	44.5347	-158.652	-45.148	4.62262	-127.504	-36.1711	9.11387	-131.308	-22.829	40.9678	-171.728	-62.6883	22.3515	-165.976	-67.5808	-4.35771	-165.82	-69.5159	-27.5569	-196.092	-47.5495	57.4199	-203.563	-44.3117	94.0505	-206.018	-14.9462	70.8063	
61	0.508333	-170.244	20.6987	83.9518	-157.687	26.8953	55.3145	-149.998	34.8603	22.6551	-142.272	43.3575	0.39388	-172.457	-0.204892	4.73581	-138.8	-3.39168	-2.84431	-126.647	2.31332	31.4596	-165.14	-19.3999	-0.721016	-130.098	-21.9011	5.78939	-131.073	-13.5994	44.7986	-164.696	-44.2645	5.58498	-132.445	-38.3034	6.29646	-132.519	-31.8322	43.0196	-181.294	-60.7948	18.9986	-177.242	-59.686	-7.72247	-174.818	-57.1269	-30.7032	-198.878	-42.3301	58.0805	-204.269	-39.3643	91.8818	-204.19	-2.04848	75.9501	
62	0.516667	-157.116	18.2382	90.4739	-145.577	24.5533	58.248	-136.611	32.1849	30.5207	-128.385	41.2646	6.2601	-164.13	7.63575	6.08791	-134.857	-1.68539	-1.61941	-122.979	-6.54465	35.3782	-166.504	-12.4549	2.27259	-129.881	-21.2513	4.53266	-128.624	-23.0028	43.8241	-168.874	-36.4995	3.60955	-138.267	-38.0477	2.37378	-134.998	-35.1166	41.3457	-188.489	-49.7792	20.1175	-185.582	-49.0044	-7.63385	-185.104	-45.7927	-33.1154	-201.989	-30.0808	64.9746	-203.872	-29.574	95.167	-195.038	3.61373	79.8447	
63	0.525	-145.978	11.9696	94.9293	-133.138	19.9436	66.3619	-124.288	29.8261	36.6222	-114.27	37.7938	13.8827	-156.612	14.0968	12.4566	-129.317	-3.05649	2.93667	-118.398	-11.3647	36.8461	-164.162	-6.2471	3.85942	-133.423	-21.6439	1.60928	-126.949	-24.9067	41.8773	-174.291	-25.5509	7.23221	-143.012	-36.2511	2.11317	-137.233	-39.5059	37.2928	-192.661	-36.4347	24.0524	-191.967	-35.9248	-5.4823	-188.273	-26.8334	-30.6713	-199.322	-19.587	66.7518	-206.017	-26.6042	99.4731	-186.511	10.7383	84.0062	
64	0.533333	-139.167	3.90628	98.1432	-121.123	11.5921	74.1522	-109.797	27.8783	40.7163	-100.472	31.3001	21.7074	-147.992	16.628	15.5855	-124.644	-4.68379	5.54301	-115.1	-16.3805	34.9594	-159.555	3.05189	7.80676	-132.999	-23.3616	3.35922	-128.824	-31.6457	42.3003	-174.776	-18.0841	5.74607	-147.895	-34.072	-0.0956659	-139.892	-39.1405	36.3479	-193.477	-24.0319	24.2719	-194.329	-19.3337	-3.88824	-194.116	-14.6954	-27.435	-197.78	-13.2694	69.2227	-200.666	-20.0305	101.082	-174.894	10.6781	90.2591	
65	0.541667	-131.539	-3.28009	101.794	-114.988	6.89895	74.0431	-99.8003	16.2665	50.0937	-89.2436	25.1225	28.0086	-140.788	21.1328	24.98	-123.332	-4.44337	7.6064	-116.654	-23.0527	39.1126	-154.191	7.79854	11.8032	-135.615	-23.0403	3.21601	-132.579	-37.459	38.5265	-169.147	-7.69075	9.56202	-148.548	-30.0264	1.81173	-143.698	-41.719	34.9672	-193.089	-13.0354	24.3244	-195.583	-9.13523	-1.16024	-190.605	4.33362	-22.2062	-193.191	-8.42299	74.3919	-200.674	-14.7128	101.518	-170.16	9.70616	95.7616	
66	0.55	-125.175	-9.14706	104.292	-106.88	-0.546798	80.901	-92.783	11.9874	51.987	-79.1036	19.5139	32.3546	-133.007	21.8048	29.754	-119.031	-2.40827	8.49003	-115.299	-24.7125	38.0404	-151.495	10.0115	14.1534	-132.696	-16.1262	1.55213	-132.794	-36.0322	40.587	-168.226	-2.89525	11.8191	-152.041	-27.3462	-0.306665	-143.638	-40.4533	31.2032	-193.231	-8.89401	30.5325	-190.563	0.745534	4.43368	-192.708	10.9644	-18.2319	-189.088	-3.13367	78.1026	-195.191	-13.4609	104.263	-162.613	9.14996	100.475	
67	0.558333	-122.185	-13.4389	105.876	-104.592	-7.30743	82.0544	-87.0828	7.61749	54.0568	-78.1376	13.8935	31.9509	-131.351	19.7184	31.3981	-118.379	-1.81574	10.2892	-115.839	-26.7732	36.8845	-149.644	11.7425	18.8204	-135.208	-17.7479	3.92346	-136.273	-36.9134	38.4621	-167.57	2.31431	14.9686	-151.687	-23.3671	2.24542	-146.705	-37.8493	33.4657	-192.054	-0.689565	29.0582	-190.888	9.5899	4.71189	-187.191	22.9021	-16.6897	-187.711	0.0306477	79.9807	-191.168	-11.4592	106.088	-157.741	6.99338	102.115	
68	0.566667	-121.052	-19.374	106.258	-102.054	-11.8582	81.8513	-88.4836	0.46462	56.1436	-73.9425	8.39521	34.2232	-126.547	19.8587	30.7377	-118.409	-6.00616	10.7648	-121.836	-27.867	37.1144	-148.133	15.1111	19.8253	-137.965	-13.8126	2.93475	-135.621	-35.4431	36.8055	-165.853	7.32227	18.6452	-153.581	-17.7325	1.3952	-151.289	-38.0052	29.8169	-193.303	3.12795	32.0928	-188.057	16.2968	9.0076	-183.677	29.92	-9.43545	-184.184	2.67456	78.5665	-193.175	-9.89635	108.436	-156.017	4.54938	101.657	
